<svg xmlns="http://www.w3.org/2000/svg" viewBox="0 0 224.04 114.62"><defs><style>.cls-1{fill:#af3a3a;}.cls-2{font-size:24.99px;font-family:TSRotger-Regular, TS Rotger;}.cls-3{letter-spacing:0em;}.cls-4{letter-spacing:0em;}.cls-5{letter-spacing:0em;}.cls-6{letter-spacing:-0.01em;}.cls-7{letter-spacing:0.01em;}.cls-8{fill:#212121;}</style></defs><g id="Layer_2" data-name="Layer 2"><g id="Layer_1-2" data-name="Layer 1"><path class="cls-1" d="M94.38,65.86c0,17.49-34.34,46-59.75,36.38-26.3-9.91-7.16-75.06-7.2-86.66C27.36-3.35,12.41.26,12.65.3c.6.1-28.5,77.37-.38,103.45,19.94,18.5,71.62,14,90.57-18.19C119,58.17,108.16,16.21,90.33,11.29"/><text class="cls-2" transform="translate(120.71 74.73)"><tspan class="cls-3">U</tspan><tspan class="cls-4" x="15.17" y="0">p</tspan><tspan class="cls-5" x="28.87" y="0">S</tspan><tspan x="40.49" y="0">t</tspan><tspan class="cls-6" x="48.34" y="0">r</tspan><tspan class="cls-7" x="57.06" y="0">e</tspan><tspan x="69.93" y="0">am</tspan></text><rect class="cls-8" x="67.1" y="35.42" width="15.09" height="15.09" rx="4.22"/><rect class="cls-8" x="36.59" y="35.42" width="15.09" height="15.09" rx="4.22"/></g></g></svg>